<?xml version="1.0" standalone="no"?>
<!DOCTYPE svg PUBLIC "-//W3C//DTD SVG 1.1//EN" "http://www.w3.org/Graphics/SVG/1.1/DTD/svg11.dtd">
<svg width="820mm" height="400mm" viewBox="-820 -400 820 400" xmlns="http://www.w3.org/2000/svg" version="1.1">
<title>OpenSCAD Model</title>
<path d="
M -820,-400 L -820,-0 L 0,-0 L 0,-400 z
M -154.279,-194.669 L -156.496,-184.24 L -160.833,-174.5 L -167.1,-165.874 L -175.023,-158.74 L -184.256,-153.409
 L -194.396,-150.114 L -205,-149 L -215.603,-150.114 L -225.744,-153.409 L -234.977,-158.74 L -242.9,-165.874
 L -249.167,-174.5 L -253.504,-184.24 L -255.721,-194.669 L -255.721,-205.331 L -253.504,-215.76 L -249.167,-225.5
 L -242.9,-234.126 L -234.977,-241.26 L -225.744,-246.591 L -215.603,-249.886 L -205,-251 L -194.396,-249.886
 L -184.256,-246.591 L -175.023,-241.26 L -167.1,-234.126 L -160.833,-225.5 L -156.496,-215.76 L -154.279,-205.331
 z
" stroke="black" fill="lightgray" stroke-width="0.5"/>
</svg>
