<?xml version="1.0" standalone="no"?>
<!DOCTYPE svg PUBLIC "-//W3C//DTD SVG 1.1//EN" "http://www.w3.org/Graphics/SVG/1.1/DTD/svg11.dtd">
<svg width="400mm" height="820mm" viewBox="0 -820 400 820" xmlns="http://www.w3.org/2000/svg" version="1.1">
<title>OpenSCAD Model</title>
<path d="
M 400,-820 L 0,-820 L 0,-0 L 400,-0 z
M 194.669,-154.279 L 184.24,-156.496 L 174.5,-160.833 L 165.874,-167.1 L 158.74,-175.023 L 153.409,-184.256
 L 150.114,-194.396 L 149,-205 L 150.114,-215.603 L 153.409,-225.744 L 158.74,-234.977 L 165.874,-242.9
 L 174.5,-249.167 L 184.24,-253.504 L 194.669,-255.721 L 205.331,-255.721 L 215.76,-253.504 L 225.5,-249.167
 L 234.126,-242.9 L 241.26,-234.977 L 246.591,-225.744 L 249.886,-215.603 L 251,-205 L 249.886,-194.396
 L 246.591,-184.256 L 241.26,-175.023 L 234.126,-167.1 L 225.5,-160.833 L 215.76,-156.496 L 205.331,-154.279
 z
" stroke="black" fill="lightgray" stroke-width="0.5"/>
</svg>
