  0
SECTION
  2
BLOCKS
  0
ENDSEC
  0
SECTION
  2
ENTITIES
  0
LINE
  8
0
 10
-840
 20
420
 11
-840
 21
0
  0
LINE
  8
0
 10
-840
 20
0
 11
0
 21
0
  0
LINE
  8
0
 10
0
 20
0
 11
0
 21
420
  0
LINE
  8
0
 10
0
 20
420
 11
-840
 21
420
  0
LINE
  8
0
 10
-147.842
 20
203.467
 11
-148.866
 21
197.006
  0
LINE
  8
0
 10
-148.866
 20
197.006
 11
-150.559
 21
190.686
  0
LINE
  8
0
 10
-150.559
 20
190.686
 11
-152.903
 21
184.579
  0
LINE
  8
0
 10
-152.903
 20
184.579
 11
-155.873
 21
178.75
  0
LINE
  8
0
 10
-155.873
 20
178.75
 11
-159.436
 21
173.263
  0
LINE
  8
0
 10
-159.436
 20
173.263
 11
-163.553
 21
168.179
  0
LINE
  8
0
 10
-163.553
 20
168.179
 11
-168.179
 21
163.553
  0
LINE
  8
0
 10
-168.179
 20
163.553
 11
-173.263
 21
159.436
  0
LINE
  8
0
 10
-173.263
 20
159.436
 11
-178.75
 21
155.873
  0
LINE
  8
0
 10
-178.75
 20
155.873
 11
-184.579
 21
152.903
  0
LINE
  8
0
 10
-184.579
 20
152.903
 11
-190.686
 21
150.559
  0
LINE
  8
0
 10
-190.686
 20
150.559
 11
-197.006
 21
148.866
  0
LINE
  8
0
 10
-197.006
 20
148.866
 11
-203.467
 21
147.842
  0
LINE
  8
0
 10
-203.467
 20
147.842
 11
-210
 21
147.5
  0
LINE
  8
0
 10
-210
 20
147.5
 11
-216.533
 21
147.842
  0
LINE
  8
0
 10
-216.533
 20
147.842
 11
-222.994
 21
148.866
  0
LINE
  8
0
 10
-222.994
 20
148.866
 11
-229.314
 21
150.559
  0
LINE
  8
0
 10
-229.314
 20
150.559
 11
-235.421
 21
152.903
  0
LINE
  8
0
 10
-235.421
 20
152.903
 11
-241.25
 21
155.873
  0
LINE
  8
0
 10
-241.25
 20
155.873
 11
-246.737
 21
159.436
  0
LINE
  8
0
 10
-246.737
 20
159.436
 11
-251.821
 21
163.553
  0
LINE
  8
0
 10
-251.821
 20
163.553
 11
-256.447
 21
168.179
  0
LINE
  8
0
 10
-256.447
 20
168.179
 11
-260.564
 21
173.263
  0
LINE
  8
0
 10
-260.564
 20
173.263
 11
-264.127
 21
178.75
  0
LINE
  8
0
 10
-264.127
 20
178.75
 11
-267.097
 21
184.579
  0
LINE
  8
0
 10
-267.097
 20
184.579
 11
-269.441
 21
190.686
  0
LINE
  8
0
 10
-269.441
 20
190.686
 11
-271.134
 21
197.006
  0
LINE
  8
0
 10
-271.134
 20
197.006
 11
-272.158
 21
203.467
  0
LINE
  8
0
 10
-272.158
 20
203.467
 11
-272.5
 21
210
  0
LINE
  8
0
 10
-272.5
 20
210
 11
-272.158
 21
216.533
  0
LINE
  8
0
 10
-272.158
 20
216.533
 11
-271.134
 21
222.994
  0
LINE
  8
0
 10
-271.134
 20
222.994
 11
-269.441
 21
229.314
  0
LINE
  8
0
 10
-269.441
 20
229.314
 11
-267.097
 21
235.421
  0
LINE
  8
0
 10
-267.097
 20
235.421
 11
-264.127
 21
241.25
  0
LINE
  8
0
 10
-264.127
 20
241.25
 11
-260.564
 21
246.737
  0
LINE
  8
0
 10
-260.564
 20
246.737
 11
-256.447
 21
251.821
  0
LINE
  8
0
 10
-256.447
 20
251.821
 11
-251.821
 21
256.447
  0
LINE
  8
0
 10
-251.821
 20
256.447
 11
-246.737
 21
260.564
  0
LINE
  8
0
 10
-246.737
 20
260.564
 11
-241.25
 21
264.127
  0
LINE
  8
0
 10
-241.25
 20
264.127
 11
-235.421
 21
267.097
  0
LINE
  8
0
 10
-235.421
 20
267.097
 11
-229.314
 21
269.441
  0
LINE
  8
0
 10
-229.314
 20
269.441
 11
-222.994
 21
271.134
  0
LINE
  8
0
 10
-222.994
 20
271.134
 11
-216.533
 21
272.158
  0
LINE
  8
0
 10
-216.533
 20
272.158
 11
-210
 21
272.5
  0
LINE
  8
0
 10
-210
 20
272.5
 11
-203.467
 21
272.158
  0
LINE
  8
0
 10
-203.467
 20
272.158
 11
-197.006
 21
271.134
  0
LINE
  8
0
 10
-197.006
 20
271.134
 11
-190.686
 21
269.441
  0
LINE
  8
0
 10
-190.686
 20
269.441
 11
-184.579
 21
267.097
  0
LINE
  8
0
 10
-184.579
 20
267.097
 11
-178.75
 21
264.127
  0
LINE
  8
0
 10
-178.75
 20
264.127
 11
-173.263
 21
260.564
  0
LINE
  8
0
 10
-173.263
 20
260.564
 11
-168.179
 21
256.447
  0
LINE
  8
0
 10
-168.179
 20
256.447
 11
-163.553
 21
251.821
  0
LINE
  8
0
 10
-163.553
 20
251.821
 11
-159.436
 21
246.737
  0
LINE
  8
0
 10
-159.436
 20
246.737
 11
-155.873
 21
241.25
  0
LINE
  8
0
 10
-155.873
 20
241.25
 11
-152.903
 21
235.421
  0
LINE
  8
0
 10
-152.903
 20
235.421
 11
-150.559
 21
229.314
  0
LINE
  8
0
 10
-150.559
 20
229.314
 11
-148.866
 21
222.994
  0
LINE
  8
0
 10
-148.866
 20
222.994
 11
-147.842
 21
216.533
  0
LINE
  8
0
 10
-147.842
 20
216.533
 11
-147.5
 21
210
  0
LINE
  8
0
 10
-147.5
 20
210
 11
-147.842
 21
203.467
  0
ENDSEC
  0
SECTION
  2
OBJECTS
  0
DICTIONARY
  0
ENDSEC
  0
EOF
