<?xml version="1.0" standalone="no"?>
<!DOCTYPE svg PUBLIC "-//W3C//DTD SVG 1.1//EN" "http://www.w3.org/Graphics/SVG/1.1/DTD/svg11.dtd">
<svg width="820mm" height="400mm" viewBox="-820 -400 820 400" xmlns="http://www.w3.org/2000/svg" version="1.1">
<title>OpenSCAD Model</title>
<path d="
M -820,-400 L -820,-0 L 0,-0 L 0,-400 z
M -141.848,-193.362 L -144.608,-180.377 L -150.007,-168.25 L -157.81,-157.51 L -167.676,-148.627 L -179.172,-141.99
 L -191.798,-137.888 L -205,-136.5 L -218.202,-137.888 L -230.828,-141.99 L -242.324,-148.627 L -252.19,-157.51
 L -259.993,-168.25 L -265.392,-180.377 L -268.152,-193.362 L -268.152,-206.638 L -265.392,-219.623 L -259.993,-231.75
 L -252.19,-242.49 L -242.324,-251.373 L -230.828,-258.01 L -218.202,-262.112 L -205,-263.5 L -191.798,-262.112
 L -179.172,-258.01 L -167.676,-251.373 L -157.81,-242.49 L -150.007,-231.75 L -144.608,-219.623 L -141.848,-206.638
 z
" stroke="black" fill="lightgray" stroke-width="0.5"/>
</svg>
