<?xml version="1.0" standalone="no"?>
<!DOCTYPE svg PUBLIC "-//W3C//DTD SVG 1.1//EN" "http://www.w3.org/Graphics/SVG/1.1/DTD/svg11.dtd">
<svg width="840mm" height="420mm" viewBox="-840 -420 840 420" xmlns="http://www.w3.org/2000/svg" version="1.1">
<title>OpenSCAD Model</title>
<path d="
M -840,-420 L -840,-0 L 0,-0 L 0,-420 z
M -148.837,-203.571 L -149.844,-197.213 L -151.51,-190.995 L -153.817,-184.986 L -156.739,-179.25 L -160.245,-173.851
 L -164.297,-168.848 L -168.848,-164.297 L -173.851,-160.245 L -179.25,-156.739 L -184.986,-153.817 L -190.995,-151.51
 L -197.213,-149.844 L -203.571,-148.837 L -210,-148.5 L -216.428,-148.837 L -222.787,-149.844 L -229.005,-151.51
 L -235.014,-153.817 L -240.75,-156.739 L -246.149,-160.245 L -251.152,-164.297 L -255.703,-168.848 L -259.755,-173.851
 L -263.261,-179.25 L -266.183,-184.986 L -268.49,-190.995 L -270.156,-197.213 L -271.163,-203.571 L -271.5,-210
 L -271.163,-216.428 L -270.156,-222.787 L -268.49,-229.005 L -266.183,-235.014 L -263.261,-240.75 L -259.755,-246.149
 L -255.703,-251.152 L -251.152,-255.703 L -246.149,-259.755 L -240.75,-263.261 L -235.014,-266.183 L -229.005,-268.49
 L -222.787,-270.156 L -216.428,-271.163 L -210,-271.5 L -203.571,-271.163 L -197.213,-270.156 L -190.995,-268.49
 L -184.986,-266.183 L -179.25,-263.261 L -173.851,-259.755 L -168.848,-255.703 L -164.297,-251.152 L -160.245,-246.149
 L -156.739,-240.75 L -153.817,-235.014 L -151.51,-229.005 L -149.844,-222.787 L -148.837,-216.428 L -148.5,-210
 z
" stroke="black" fill="lightgray" stroke-width="0.5"/>
</svg>
