<?xml version="1.0" standalone="no"?>
<!DOCTYPE svg PUBLIC "-//W3C//DTD SVG 1.1//EN" "http://www.w3.org/Graphics/SVG/1.1/DTD/svg11.dtd">
<svg width="845mm" height="415mm" viewBox="-845 -415 845 415" xmlns="http://www.w3.org/2000/svg" version="1.1">
<title>OpenSCAD Model</title>
<path d="
M -845,-415 L -845,-0 L 0,-0 L 0,-415 z
M -162.518,-202.378 L -163.321,-197.312 L -164.648,-192.358 L -166.486,-187.57 L -168.815,-183 L -171.608,-178.699
 L -174.836,-174.713 L -178.463,-171.086 L -182.449,-167.858 L -186.75,-165.065 L -191.32,-162.736 L -196.108,-160.898
 L -201.062,-159.571 L -206.128,-158.768 L -211.25,-158.5 L -216.372,-158.768 L -221.438,-159.571 L -226.392,-160.898
 L -231.18,-162.736 L -235.75,-165.065 L -240.051,-167.858 L -244.037,-171.086 L -247.664,-174.713 L -250.892,-178.699
 L -253.685,-183 L -256.014,-187.57 L -257.852,-192.358 L -259.179,-197.312 L -259.982,-202.378 L -260.25,-207.5
 L -259.982,-212.622 L -259.179,-217.688 L -257.852,-222.642 L -256.014,-227.43 L -253.685,-232 L -250.892,-236.301
 L -247.664,-240.287 L -244.037,-243.914 L -240.051,-247.142 L -235.75,-249.935 L -231.18,-252.264 L -226.392,-254.102
 L -221.438,-255.429 L -216.372,-256.232 L -211.25,-256.5 L -206.128,-256.232 L -201.062,-255.429 L -196.108,-254.102
 L -191.32,-252.264 L -186.75,-249.935 L -182.449,-247.142 L -178.463,-243.914 L -174.836,-240.287 L -171.608,-236.301
 L -168.815,-232 L -166.486,-227.43 L -164.648,-222.642 L -163.321,-217.688 L -162.518,-212.622 L -162.25,-207.5
 z
" stroke="black" fill="lightgray" stroke-width="0.5"/>
</svg>
