  0
SECTION
  2
BLOCKS
  0
ENDSEC
  0
SECTION
  2
ENTITIES
  0
LINE
  8
0
 10
400
 20
820
 11
0
 21
820
  0
LINE
  8
0
 10
0
 20
820
 11
0
 21
0
  0
LINE
  8
0
 10
0
 20
0
 11
400
 21
0
  0
LINE
  8
0
 10
400
 20
0
 11
400
 21
820
  0
LINE
  8
0
 10
194.774
 20
155.274
 11
184.549
 21
157.447
  0
LINE
  8
0
 10
184.549
 20
157.447
 11
175
 21
161.699
  0
LINE
  8
0
 10
175
 20
161.699
 11
166.543
 21
167.843
  0
LINE
  8
0
 10
166.543
 20
167.843
 11
159.549
 21
175.611
  0
LINE
  8
0
 10
159.549
 20
175.611
 11
154.323
 21
184.663
  0
LINE
  8
0
 10
154.323
 20
184.663
 11
151.093
 21
194.604
  0
LINE
  8
0
 10
151.093
 20
194.604
 11
150
 21
205
  0
LINE
  8
0
 10
150
 20
205
 11
151.093
 21
215.396
  0
LINE
  8
0
 10
151.093
 20
215.396
 11
154.323
 21
225.337
  0
LINE
  8
0
 10
154.323
 20
225.337
 11
159.549
 21
234.389
  0
LINE
  8
0
 10
159.549
 20
234.389
 11
166.543
 21
242.157
  0
LINE
  8
0
 10
166.543
 20
242.157
 11
175
 21
248.301
  0
LINE
  8
0
 10
175
 20
248.301
 11
184.549
 21
252.553
  0
LINE
  8
0
 10
184.549
 20
252.553
 11
194.774
 21
254.726
  0
LINE
  8
0
 10
194.774
 20
254.726
 11
205.226
 21
254.726
  0
LINE
  8
0
 10
205.226
 20
254.726
 11
215.451
 21
252.553
  0
LINE
  8
0
 10
215.451
 20
252.553
 11
225
 21
248.301
  0
LINE
  8
0
 10
225
 20
248.301
 11
233.457
 21
242.157
  0
LINE
  8
0
 10
233.457
 20
242.157
 11
240.451
 21
234.389
  0
LINE
  8
0
 10
240.451
 20
234.389
 11
245.677
 21
225.337
  0
LINE
  8
0
 10
245.677
 20
225.337
 11
248.907
 21
215.396
  0
LINE
  8
0
 10
248.907
 20
215.396
 11
250
 21
205
  0
LINE
  8
0
 10
250
 20
205
 11
248.907
 21
194.604
  0
LINE
  8
0
 10
248.907
 20
194.604
 11
245.677
 21
184.663
  0
LINE
  8
0
 10
245.677
 20
184.663
 11
240.451
 21
175.611
  0
LINE
  8
0
 10
240.451
 20
175.611
 11
233.457
 21
167.843
  0
LINE
  8
0
 10
233.457
 20
167.843
 11
225
 21
161.699
  0
LINE
  8
0
 10
225
 20
161.699
 11
215.451
 21
157.447
  0
LINE
  8
0
 10
215.451
 20
157.447
 11
205.226
 21
155.274
  0
LINE
  8
0
 10
205.226
 20
155.274
 11
194.774
 21
155.274
  0
ENDSEC
  0
SECTION
  2
OBJECTS
  0
DICTIONARY
  0
ENDSEC
  0
EOF
