  0
SECTION
  2
BLOCKS
  0
ENDSEC
  0
SECTION
  2
ENTITIES
  0
LINE
  8
0
 10
-820
 20
400
 11
-820
 21
0
  0
LINE
  8
0
 10
-820
 20
0
 11
0
 21
0
  0
LINE
  8
0
 10
0
 20
0
 11
0
 21
400
  0
LINE
  8
0
 10
0
 20
400
 11
-820
 21
400
  0
LINE
  8
0
 10
-154.279
 20
194.669
 11
-156.496
 21
184.24
  0
LINE
  8
0
 10
-156.496
 20
184.24
 11
-160.833
 21
174.5
  0
LINE
  8
0
 10
-160.833
 20
174.5
 11
-167.1
 21
165.874
  0
LINE
  8
0
 10
-167.1
 20
165.874
 11
-175.023
 21
158.74
  0
LINE
  8
0
 10
-175.023
 20
158.74
 11
-184.256
 21
153.409
  0
LINE
  8
0
 10
-184.256
 20
153.409
 11
-194.396
 21
150.114
  0
LINE
  8
0
 10
-194.396
 20
150.114
 11
-205
 21
149
  0
LINE
  8
0
 10
-205
 20
149
 11
-215.603
 21
150.114
  0
LINE
  8
0
 10
-215.603
 20
150.114
 11
-225.744
 21
153.409
  0
LINE
  8
0
 10
-225.744
 20
153.409
 11
-234.977
 21
158.74
  0
LINE
  8
0
 10
-234.977
 20
158.74
 11
-242.9
 21
165.874
  0
LINE
  8
0
 10
-242.9
 20
165.874
 11
-249.167
 21
174.5
  0
LINE
  8
0
 10
-249.167
 20
174.5
 11
-253.504
 21
184.24
  0
LINE
  8
0
 10
-253.504
 20
184.24
 11
-255.721
 21
194.669
  0
LINE
  8
0
 10
-255.721
 20
194.669
 11
-255.721
 21
205.331
  0
LINE
  8
0
 10
-255.721
 20
205.331
 11
-253.504
 21
215.76
  0
LINE
  8
0
 10
-253.504
 20
215.76
 11
-249.167
 21
225.5
  0
LINE
  8
0
 10
-249.167
 20
225.5
 11
-242.9
 21
234.126
  0
LINE
  8
0
 10
-242.9
 20
234.126
 11
-234.977
 21
241.26
  0
LINE
  8
0
 10
-234.977
 20
241.26
 11
-225.744
 21
246.591
  0
LINE
  8
0
 10
-225.744
 20
246.591
 11
-215.603
 21
249.886
  0
LINE
  8
0
 10
-215.603
 20
249.886
 11
-205
 21
251
  0
LINE
  8
0
 10
-205
 20
251
 11
-194.396
 21
249.886
  0
LINE
  8
0
 10
-194.396
 20
249.886
 11
-184.256
 21
246.591
  0
LINE
  8
0
 10
-184.256
 20
246.591
 11
-175.023
 21
241.26
  0
LINE
  8
0
 10
-175.023
 20
241.26
 11
-167.1
 21
234.126
  0
LINE
  8
0
 10
-167.1
 20
234.126
 11
-160.833
 21
225.5
  0
LINE
  8
0
 10
-160.833
 20
225.5
 11
-156.496
 21
215.76
  0
LINE
  8
0
 10
-156.496
 20
215.76
 11
-154.279
 21
205.331
  0
LINE
  8
0
 10
-154.279
 20
205.331
 11
-154.279
 21
194.669
  0
ENDSEC
  0
SECTION
  2
OBJECTS
  0
DICTIONARY
  0
ENDSEC
  0
EOF
