  0
SECTION
  2
BLOCKS
  0
ENDSEC
  0
SECTION
  2
ENTITIES
  0
LINE
  8
0
 10
-845
 20
415
 11
-845
 21
0
  0
LINE
  8
0
 10
-845
 20
0
 11
0
 21
0
  0
LINE
  8
0
 10
0
 20
0
 11
0
 21
415
  0
LINE
  8
0
 10
0
 20
415
 11
-845
 21
415
  0
LINE
  8
0
 10
-162.518
 20
202.378
 11
-163.321
 21
197.312
  0
LINE
  8
0
 10
-163.321
 20
197.312
 11
-164.648
 21
192.358
  0
LINE
  8
0
 10
-164.648
 20
192.358
 11
-166.486
 21
187.57
  0
LINE
  8
0
 10
-166.486
 20
187.57
 11
-168.815
 21
183
  0
LINE
  8
0
 10
-168.815
 20
183
 11
-171.608
 21
178.699
  0
LINE
  8
0
 10
-171.608
 20
178.699
 11
-174.836
 21
174.713
  0
LINE
  8
0
 10
-174.836
 20
174.713
 11
-178.463
 21
171.086
  0
LINE
  8
0
 10
-178.463
 20
171.086
 11
-182.449
 21
167.858
  0
LINE
  8
0
 10
-182.449
 20
167.858
 11
-186.75
 21
165.065
  0
LINE
  8
0
 10
-186.75
 20
165.065
 11
-191.32
 21
162.736
  0
LINE
  8
0
 10
-191.32
 20
162.736
 11
-196.108
 21
160.898
  0
LINE
  8
0
 10
-196.108
 20
160.898
 11
-201.062
 21
159.571
  0
LINE
  8
0
 10
-201.062
 20
159.571
 11
-206.128
 21
158.768
  0
LINE
  8
0
 10
-206.128
 20
158.768
 11
-211.25
 21
158.5
  0
LINE
  8
0
 10
-211.25
 20
158.5
 11
-216.372
 21
158.768
  0
LINE
  8
0
 10
-216.372
 20
158.768
 11
-221.438
 21
159.571
  0
LINE
  8
0
 10
-221.438
 20
159.571
 11
-226.392
 21
160.898
  0
LINE
  8
0
 10
-226.392
 20
160.898
 11
-231.18
 21
162.736
  0
LINE
  8
0
 10
-231.18
 20
162.736
 11
-235.75
 21
165.065
  0
LINE
  8
0
 10
-235.75
 20
165.065
 11
-240.051
 21
167.858
  0
LINE
  8
0
 10
-240.051
 20
167.858
 11
-244.037
 21
171.086
  0
LINE
  8
0
 10
-244.037
 20
171.086
 11
-247.664
 21
174.713
  0
LINE
  8
0
 10
-247.664
 20
174.713
 11
-250.892
 21
178.699
  0
LINE
  8
0
 10
-250.892
 20
178.699
 11
-253.685
 21
183
  0
LINE
  8
0
 10
-253.685
 20
183
 11
-256.014
 21
187.57
  0
LINE
  8
0
 10
-256.014
 20
187.57
 11
-257.852
 21
192.358
  0
LINE
  8
0
 10
-257.852
 20
192.358
 11
-259.179
 21
197.312
  0
LINE
  8
0
 10
-259.179
 20
197.312
 11
-259.982
 21
202.378
  0
LINE
  8
0
 10
-259.982
 20
202.378
 11
-260.25
 21
207.5
  0
LINE
  8
0
 10
-260.25
 20
207.5
 11
-259.982
 21
212.622
  0
LINE
  8
0
 10
-259.982
 20
212.622
 11
-259.179
 21
217.688
  0
LINE
  8
0
 10
-259.179
 20
217.688
 11
-257.852
 21
222.642
  0
LINE
  8
0
 10
-257.852
 20
222.642
 11
-256.014
 21
227.43
  0
LINE
  8
0
 10
-256.014
 20
227.43
 11
-253.685
 21
232
  0
LINE
  8
0
 10
-253.685
 20
232
 11
-250.892
 21
236.301
  0
LINE
  8
0
 10
-250.892
 20
236.301
 11
-247.664
 21
240.287
  0
LINE
  8
0
 10
-247.664
 20
240.287
 11
-244.037
 21
243.914
  0
LINE
  8
0
 10
-244.037
 20
243.914
 11
-240.051
 21
247.142
  0
LINE
  8
0
 10
-240.051
 20
247.142
 11
-235.75
 21
249.935
  0
LINE
  8
0
 10
-235.75
 20
249.935
 11
-231.18
 21
252.264
  0
LINE
  8
0
 10
-231.18
 20
252.264
 11
-226.392
 21
254.102
  0
LINE
  8
0
 10
-226.392
 20
254.102
 11
-221.438
 21
255.429
  0
LINE
  8
0
 10
-221.438
 20
255.429
 11
-216.372
 21
256.232
  0
LINE
  8
0
 10
-216.372
 20
256.232
 11
-211.25
 21
256.5
  0
LINE
  8
0
 10
-211.25
 20
256.5
 11
-206.128
 21
256.232
  0
LINE
  8
0
 10
-206.128
 20
256.232
 11
-201.062
 21
255.429
  0
LINE
  8
0
 10
-201.062
 20
255.429
 11
-196.108
 21
254.102
  0
LINE
  8
0
 10
-196.108
 20
254.102
 11
-191.32
 21
252.264
  0
LINE
  8
0
 10
-191.32
 20
252.264
 11
-186.75
 21
249.935
  0
LINE
  8
0
 10
-186.75
 20
249.935
 11
-182.449
 21
247.142
  0
LINE
  8
0
 10
-182.449
 20
247.142
 11
-178.463
 21
243.914
  0
LINE
  8
0
 10
-178.463
 20
243.914
 11
-174.836
 21
240.287
  0
LINE
  8
0
 10
-174.836
 20
240.287
 11
-171.608
 21
236.301
  0
LINE
  8
0
 10
-171.608
 20
236.301
 11
-168.815
 21
232
  0
LINE
  8
0
 10
-168.815
 20
232
 11
-166.486
 21
227.43
  0
LINE
  8
0
 10
-166.486
 20
227.43
 11
-164.648
 21
222.642
  0
LINE
  8
0
 10
-164.648
 20
222.642
 11
-163.321
 21
217.688
  0
LINE
  8
0
 10
-163.321
 20
217.688
 11
-162.518
 21
212.622
  0
LINE
  8
0
 10
-162.518
 20
212.622
 11
-162.25
 21
207.5
  0
LINE
  8
0
 10
-162.25
 20
207.5
 11
-162.518
 21
202.378
  0
ENDSEC
  0
SECTION
  2
OBJECTS
  0
DICTIONARY
  0
ENDSEC
  0
EOF
