<?xml version="1.0" standalone="no"?>
<!DOCTYPE svg PUBLIC "-//W3C//DTD SVG 1.1//EN" "http://www.w3.org/Graphics/SVG/1.1/DTD/svg11.dtd">
<svg width="840mm" height="420mm" viewBox="-840 -420 840 420" xmlns="http://www.w3.org/2000/svg" version="1.1">
<title>OpenSCAD Model</title>
<path d="
M -840,-420 L -840,-0 L 0,-0 L 0,-420 z
M -161.268,-204.878 L -162.071,-199.812 L -163.398,-194.858 L -165.236,-190.07 L -167.565,-185.5 L -170.358,-181.199
 L -173.586,-177.213 L -177.213,-173.586 L -181.199,-170.358 L -185.5,-167.565 L -190.07,-165.236 L -194.858,-163.398
 L -199.812,-162.071 L -204.878,-161.268 L -210,-161 L -215.122,-161.268 L -220.188,-162.071 L -225.142,-163.398
 L -229.93,-165.236 L -234.5,-167.565 L -238.801,-170.358 L -242.787,-173.586 L -246.414,-177.213 L -249.642,-181.199
 L -252.435,-185.5 L -254.764,-190.07 L -256.602,-194.858 L -257.929,-199.812 L -258.732,-204.878 L -259,-210
 L -258.732,-215.122 L -257.929,-220.188 L -256.602,-225.142 L -254.764,-229.93 L -252.435,-234.5 L -249.642,-238.801
 L -246.414,-242.787 L -242.787,-246.414 L -238.801,-249.642 L -234.5,-252.435 L -229.93,-254.764 L -225.142,-256.602
 L -220.188,-257.929 L -215.122,-258.732 L -210,-259 L -204.878,-258.732 L -199.812,-257.929 L -194.858,-256.602
 L -190.07,-254.764 L -185.5,-252.435 L -181.199,-249.642 L -177.213,-246.414 L -173.586,-242.787 L -170.358,-238.801
 L -167.565,-234.5 L -165.236,-229.93 L -163.398,-225.142 L -162.071,-220.188 L -161.268,-215.122 L -161,-210
 z
" stroke="black" fill="lightgray" stroke-width="0.5"/>
</svg>
