  0
SECTION
  2
BLOCKS
  0
ENDSEC
  0
SECTION
  2
ENTITIES
  0
LINE
  8
0
 10
-840
 20
420
 11
-840
 21
0
  0
LINE
  8
0
 10
-840
 20
0
 11
0
 21
0
  0
LINE
  8
0
 10
0
 20
0
 11
0
 21
420
  0
LINE
  8
0
 10
0
 20
420
 11
-840
 21
420
  0
LINE
  8
0
 10
-161.268
 20
204.878
 11
-162.071
 21
199.812
  0
LINE
  8
0
 10
-162.071
 20
199.812
 11
-163.398
 21
194.858
  0
LINE
  8
0
 10
-163.398
 20
194.858
 11
-165.236
 21
190.07
  0
LINE
  8
0
 10
-165.236
 20
190.07
 11
-167.565
 21
185.5
  0
LINE
  8
0
 10
-167.565
 20
185.5
 11
-170.358
 21
181.199
  0
LINE
  8
0
 10
-170.358
 20
181.199
 11
-173.586
 21
177.213
  0
LINE
  8
0
 10
-173.586
 20
177.213
 11
-177.213
 21
173.586
  0
LINE
  8
0
 10
-177.213
 20
173.586
 11
-181.199
 21
170.358
  0
LINE
  8
0
 10
-181.199
 20
170.358
 11
-185.5
 21
167.565
  0
LINE
  8
0
 10
-185.5
 20
167.565
 11
-190.07
 21
165.236
  0
LINE
  8
0
 10
-190.07
 20
165.236
 11
-194.858
 21
163.398
  0
LINE
  8
0
 10
-194.858
 20
163.398
 11
-199.812
 21
162.071
  0
LINE
  8
0
 10
-199.812
 20
162.071
 11
-204.878
 21
161.268
  0
LINE
  8
0
 10
-204.878
 20
161.268
 11
-210
 21
161
  0
LINE
  8
0
 10
-210
 20
161
 11
-215.122
 21
161.268
  0
LINE
  8
0
 10
-215.122
 20
161.268
 11
-220.188
 21
162.071
  0
LINE
  8
0
 10
-220.188
 20
162.071
 11
-225.142
 21
163.398
  0
LINE
  8
0
 10
-225.142
 20
163.398
 11
-229.93
 21
165.236
  0
LINE
  8
0
 10
-229.93
 20
165.236
 11
-234.5
 21
167.565
  0
LINE
  8
0
 10
-234.5
 20
167.565
 11
-238.801
 21
170.358
  0
LINE
  8
0
 10
-238.801
 20
170.358
 11
-242.787
 21
173.586
  0
LINE
  8
0
 10
-242.787
 20
173.586
 11
-246.414
 21
177.213
  0
LINE
  8
0
 10
-246.414
 20
177.213
 11
-249.642
 21
181.199
  0
LINE
  8
0
 10
-249.642
 20
181.199
 11
-252.435
 21
185.5
  0
LINE
  8
0
 10
-252.435
 20
185.5
 11
-254.764
 21
190.07
  0
LINE
  8
0
 10
-254.764
 20
190.07
 11
-256.602
 21
194.858
  0
LINE
  8
0
 10
-256.602
 20
194.858
 11
-257.929
 21
199.812
  0
LINE
  8
0
 10
-257.929
 20
199.812
 11
-258.732
 21
204.878
  0
LINE
  8
0
 10
-258.732
 20
204.878
 11
-259
 21
210
  0
LINE
  8
0
 10
-259
 20
210
 11
-258.732
 21
215.122
  0
LINE
  8
0
 10
-258.732
 20
215.122
 11
-257.929
 21
220.188
  0
LINE
  8
0
 10
-257.929
 20
220.188
 11
-256.602
 21
225.142
  0
LINE
  8
0
 10
-256.602
 20
225.142
 11
-254.764
 21
229.93
  0
LINE
  8
0
 10
-254.764
 20
229.93
 11
-252.435
 21
234.5
  0
LINE
  8
0
 10
-252.435
 20
234.5
 11
-249.642
 21
238.801
  0
LINE
  8
0
 10
-249.642
 20
238.801
 11
-246.414
 21
242.787
  0
LINE
  8
0
 10
-246.414
 20
242.787
 11
-242.787
 21
246.414
  0
LINE
  8
0
 10
-242.787
 20
246.414
 11
-238.801
 21
249.642
  0
LINE
  8
0
 10
-238.801
 20
249.642
 11
-234.5
 21
252.435
  0
LINE
  8
0
 10
-234.5
 20
252.435
 11
-229.93
 21
254.764
  0
LINE
  8
0
 10
-229.93
 20
254.764
 11
-225.142
 21
256.602
  0
LINE
  8
0
 10
-225.142
 20
256.602
 11
-220.188
 21
257.929
  0
LINE
  8
0
 10
-220.188
 20
257.929
 11
-215.122
 21
258.732
  0
LINE
  8
0
 10
-215.122
 20
258.732
 11
-210
 21
259
  0
LINE
  8
0
 10
-210
 20
259
 11
-204.878
 21
258.732
  0
LINE
  8
0
 10
-204.878
 20
258.732
 11
-199.812
 21
257.929
  0
LINE
  8
0
 10
-199.812
 20
257.929
 11
-194.858
 21
256.602
  0
LINE
  8
0
 10
-194.858
 20
256.602
 11
-190.07
 21
254.764
  0
LINE
  8
0
 10
-190.07
 20
254.764
 11
-185.5
 21
252.435
  0
LINE
  8
0
 10
-185.5
 20
252.435
 11
-181.199
 21
249.642
  0
LINE
  8
0
 10
-181.199
 20
249.642
 11
-177.213
 21
246.414
  0
LINE
  8
0
 10
-177.213
 20
246.414
 11
-173.586
 21
242.787
  0
LINE
  8
0
 10
-173.586
 20
242.787
 11
-170.358
 21
238.801
  0
LINE
  8
0
 10
-170.358
 20
238.801
 11
-167.565
 21
234.5
  0
LINE
  8
0
 10
-167.565
 20
234.5
 11
-165.236
 21
229.93
  0
LINE
  8
0
 10
-165.236
 20
229.93
 11
-163.398
 21
225.142
  0
LINE
  8
0
 10
-163.398
 20
225.142
 11
-162.071
 21
220.188
  0
LINE
  8
0
 10
-162.071
 20
220.188
 11
-161.268
 21
215.122
  0
LINE
  8
0
 10
-161.268
 20
215.122
 11
-161
 21
210
  0
LINE
  8
0
 10
-161
 20
210
 11
-161.268
 21
204.878
  0
ENDSEC
  0
SECTION
  2
OBJECTS
  0
DICTIONARY
  0
ENDSEC
  0
EOF
