  0
SECTION
  2
BLOCKS
  0
ENDSEC
  0
SECTION
  2
ENTITIES
  0
LINE
  8
0
 10
400
 20
820
 11
0
 21
820
  0
LINE
  8
0
 10
0
 20
820
 11
0
 21
0
  0
LINE
  8
0
 10
0
 20
0
 11
400
 21
0
  0
LINE
  8
0
 10
400
 20
0
 11
400
 21
820
  0
LINE
  8
0
 10
194.669
 20
154.279
 11
184.24
 21
156.496
  0
LINE
  8
0
 10
184.24
 20
156.496
 11
174.5
 21
160.833
  0
LINE
  8
0
 10
174.5
 20
160.833
 11
165.874
 21
167.1
  0
LINE
  8
0
 10
165.874
 20
167.1
 11
158.74
 21
175.023
  0
LINE
  8
0
 10
158.74
 20
175.023
 11
153.409
 21
184.256
  0
LINE
  8
0
 10
153.409
 20
184.256
 11
150.114
 21
194.396
  0
LINE
  8
0
 10
150.114
 20
194.396
 11
149
 21
205
  0
LINE
  8
0
 10
149
 20
205
 11
150.114
 21
215.603
  0
LINE
  8
0
 10
150.114
 20
215.603
 11
153.409
 21
225.744
  0
LINE
  8
0
 10
153.409
 20
225.744
 11
158.74
 21
234.977
  0
LINE
  8
0
 10
158.74
 20
234.977
 11
165.874
 21
242.9
  0
LINE
  8
0
 10
165.874
 20
242.9
 11
174.5
 21
249.167
  0
LINE
  8
0
 10
174.5
 20
249.167
 11
184.24
 21
253.504
  0
LINE
  8
0
 10
184.24
 20
253.504
 11
194.669
 21
255.721
  0
LINE
  8
0
 10
194.669
 20
255.721
 11
205.331
 21
255.721
  0
LINE
  8
0
 10
205.331
 20
255.721
 11
215.76
 21
253.504
  0
LINE
  8
0
 10
215.76
 20
253.504
 11
225.5
 21
249.167
  0
LINE
  8
0
 10
225.5
 20
249.167
 11
234.126
 21
242.9
  0
LINE
  8
0
 10
234.126
 20
242.9
 11
241.26
 21
234.977
  0
LINE
  8
0
 10
241.26
 20
234.977
 11
246.591
 21
225.744
  0
LINE
  8
0
 10
246.591
 20
225.744
 11
249.886
 21
215.603
  0
LINE
  8
0
 10
249.886
 20
215.603
 11
251
 21
205
  0
LINE
  8
0
 10
251
 20
205
 11
249.886
 21
194.396
  0
LINE
  8
0
 10
249.886
 20
194.396
 11
246.591
 21
184.256
  0
LINE
  8
0
 10
246.591
 20
184.256
 11
241.26
 21
175.023
  0
LINE
  8
0
 10
241.26
 20
175.023
 11
234.126
 21
167.1
  0
LINE
  8
0
 10
234.126
 20
167.1
 11
225.5
 21
160.833
  0
LINE
  8
0
 10
225.5
 20
160.833
 11
215.76
 21
156.496
  0
LINE
  8
0
 10
215.76
 20
156.496
 11
205.331
 21
154.279
  0
LINE
  8
0
 10
205.331
 20
154.279
 11
194.669
 21
154.279
  0
ENDSEC
  0
SECTION
  2
OBJECTS
  0
DICTIONARY
  0
ENDSEC
  0
EOF
