  0
SECTION
  2
BLOCKS
  0
ENDSEC
  0
SECTION
  2
ENTITIES
  0
LINE
  8
0
 10
400
 20
820
 11
0
 21
820
  0
LINE
  8
0
 10
0
 20
820
 11
0
 21
0
  0
LINE
  8
0
 10
0
 20
0
 11
400
 21
0
  0
LINE
  8
0
 10
400
 20
0
 11
400
 21
820
  0
LINE
  8
0
 10
193.362
 20
141.848
 11
180.377
 21
144.608
  0
LINE
  8
0
 10
180.377
 20
144.608
 11
168.25
 21
150.007
  0
LINE
  8
0
 10
168.25
 20
150.007
 11
157.51
 21
157.81
  0
LINE
  8
0
 10
157.51
 20
157.81
 11
148.627
 21
167.676
  0
LINE
  8
0
 10
148.627
 20
167.676
 11
141.99
 21
179.172
  0
LINE
  8
0
 10
141.99
 20
179.172
 11
137.888
 21
191.798
  0
LINE
  8
0
 10
137.888
 20
191.798
 11
136.5
 21
205
  0
LINE
  8
0
 10
136.5
 20
205
 11
137.888
 21
218.202
  0
LINE
  8
0
 10
137.888
 20
218.202
 11
141.99
 21
230.828
  0
LINE
  8
0
 10
141.99
 20
230.828
 11
148.627
 21
242.324
  0
LINE
  8
0
 10
148.627
 20
242.324
 11
157.51
 21
252.19
  0
LINE
  8
0
 10
157.51
 20
252.19
 11
168.25
 21
259.993
  0
LINE
  8
0
 10
168.25
 20
259.993
 11
180.377
 21
265.392
  0
LINE
  8
0
 10
180.377
 20
265.392
 11
193.362
 21
268.152
  0
LINE
  8
0
 10
193.362
 20
268.152
 11
206.638
 21
268.152
  0
LINE
  8
0
 10
206.638
 20
268.152
 11
219.623
 21
265.392
  0
LINE
  8
0
 10
219.623
 20
265.392
 11
231.75
 21
259.993
  0
LINE
  8
0
 10
231.75
 20
259.993
 11
242.49
 21
252.19
  0
LINE
  8
0
 10
242.49
 20
252.19
 11
251.373
 21
242.324
  0
LINE
  8
0
 10
251.373
 20
242.324
 11
258.01
 21
230.828
  0
LINE
  8
0
 10
258.01
 20
230.828
 11
262.112
 21
218.202
  0
LINE
  8
0
 10
262.112
 20
218.202
 11
263.5
 21
205
  0
LINE
  8
0
 10
263.5
 20
205
 11
262.112
 21
191.798
  0
LINE
  8
0
 10
262.112
 20
191.798
 11
258.01
 21
179.172
  0
LINE
  8
0
 10
258.01
 20
179.172
 11
251.373
 21
167.676
  0
LINE
  8
0
 10
251.373
 20
167.676
 11
242.49
 21
157.81
  0
LINE
  8
0
 10
242.49
 20
157.81
 11
231.75
 21
150.007
  0
LINE
  8
0
 10
231.75
 20
150.007
 11
219.623
 21
144.608
  0
LINE
  8
0
 10
219.623
 20
144.608
 11
206.638
 21
141.848
  0
LINE
  8
0
 10
206.638
 20
141.848
 11
193.362
 21
141.848
  0
ENDSEC
  0
SECTION
  2
OBJECTS
  0
DICTIONARY
  0
ENDSEC
  0
EOF
