  0
SECTION
  2
BLOCKS
  0
ENDSEC
  0
SECTION
  2
ENTITIES
  0
LINE
  8
0
 10
-840
 20
420
 11
-840
 21
0
  0
LINE
  8
0
 10
-840
 20
0
 11
0
 21
0
  0
LINE
  8
0
 10
0
 20
0
 11
0
 21
420
  0
LINE
  8
0
 10
0
 20
420
 11
-840
 21
420
  0
LINE
  8
0
 10
-148.837
 20
203.571
 11
-149.844
 21
197.213
  0
LINE
  8
0
 10
-149.844
 20
197.213
 11
-151.51
 21
190.995
  0
LINE
  8
0
 10
-151.51
 20
190.995
 11
-153.817
 21
184.986
  0
LINE
  8
0
 10
-153.817
 20
184.986
 11
-156.739
 21
179.25
  0
LINE
  8
0
 10
-156.739
 20
179.25
 11
-160.245
 21
173.851
  0
LINE
  8
0
 10
-160.245
 20
173.851
 11
-164.297
 21
168.848
  0
LINE
  8
0
 10
-164.297
 20
168.848
 11
-168.848
 21
164.297
  0
LINE
  8
0
 10
-168.848
 20
164.297
 11
-173.851
 21
160.245
  0
LINE
  8
0
 10
-173.851
 20
160.245
 11
-179.25
 21
156.739
  0
LINE
  8
0
 10
-179.25
 20
156.739
 11
-184.986
 21
153.817
  0
LINE
  8
0
 10
-184.986
 20
153.817
 11
-190.995
 21
151.51
  0
LINE
  8
0
 10
-190.995
 20
151.51
 11
-197.213
 21
149.844
  0
LINE
  8
0
 10
-197.213
 20
149.844
 11
-203.571
 21
148.837
  0
LINE
  8
0
 10
-203.571
 20
148.837
 11
-210
 21
148.5
  0
LINE
  8
0
 10
-210
 20
148.5
 11
-216.428
 21
148.837
  0
LINE
  8
0
 10
-216.428
 20
148.837
 11
-222.787
 21
149.844
  0
LINE
  8
0
 10
-222.787
 20
149.844
 11
-229.005
 21
151.51
  0
LINE
  8
0
 10
-229.005
 20
151.51
 11
-235.014
 21
153.817
  0
LINE
  8
0
 10
-235.014
 20
153.817
 11
-240.75
 21
156.739
  0
LINE
  8
0
 10
-240.75
 20
156.739
 11
-246.149
 21
160.245
  0
LINE
  8
0
 10
-246.149
 20
160.245
 11
-251.152
 21
164.297
  0
LINE
  8
0
 10
-251.152
 20
164.297
 11
-255.703
 21
168.848
  0
LINE
  8
0
 10
-255.703
 20
168.848
 11
-259.755
 21
173.851
  0
LINE
  8
0
 10
-259.755
 20
173.851
 11
-263.261
 21
179.25
  0
LINE
  8
0
 10
-263.261
 20
179.25
 11
-266.183
 21
184.986
  0
LINE
  8
0
 10
-266.183
 20
184.986
 11
-268.49
 21
190.995
  0
LINE
  8
0
 10
-268.49
 20
190.995
 11
-270.156
 21
197.213
  0
LINE
  8
0
 10
-270.156
 20
197.213
 11
-271.163
 21
203.571
  0
LINE
  8
0
 10
-271.163
 20
203.571
 11
-271.5
 21
210
  0
LINE
  8
0
 10
-271.5
 20
210
 11
-271.163
 21
216.428
  0
LINE
  8
0
 10
-271.163
 20
216.428
 11
-270.156
 21
222.787
  0
LINE
  8
0
 10
-270.156
 20
222.787
 11
-268.49
 21
229.005
  0
LINE
  8
0
 10
-268.49
 20
229.005
 11
-266.183
 21
235.014
  0
LINE
  8
0
 10
-266.183
 20
235.014
 11
-263.261
 21
240.75
  0
LINE
  8
0
 10
-263.261
 20
240.75
 11
-259.755
 21
246.149
  0
LINE
  8
0
 10
-259.755
 20
246.149
 11
-255.703
 21
251.152
  0
LINE
  8
0
 10
-255.703
 20
251.152
 11
-251.152
 21
255.703
  0
LINE
  8
0
 10
-251.152
 20
255.703
 11
-246.149
 21
259.755
  0
LINE
  8
0
 10
-246.149
 20
259.755
 11
-240.75
 21
263.261
  0
LINE
  8
0
 10
-240.75
 20
263.261
 11
-235.014
 21
266.183
  0
LINE
  8
0
 10
-235.014
 20
266.183
 11
-229.005
 21
268.49
  0
LINE
  8
0
 10
-229.005
 20
268.49
 11
-222.787
 21
270.156
  0
LINE
  8
0
 10
-222.787
 20
270.156
 11
-216.428
 21
271.163
  0
LINE
  8
0
 10
-216.428
 20
271.163
 11
-210
 21
271.5
  0
LINE
  8
0
 10
-210
 20
271.5
 11
-203.571
 21
271.163
  0
LINE
  8
0
 10
-203.571
 20
271.163
 11
-197.213
 21
270.156
  0
LINE
  8
0
 10
-197.213
 20
270.156
 11
-190.995
 21
268.49
  0
LINE
  8
0
 10
-190.995
 20
268.49
 11
-184.986
 21
266.183
  0
LINE
  8
0
 10
-184.986
 20
266.183
 11
-179.25
 21
263.261
  0
LINE
  8
0
 10
-179.25
 20
263.261
 11
-173.851
 21
259.755
  0
LINE
  8
0
 10
-173.851
 20
259.755
 11
-168.848
 21
255.703
  0
LINE
  8
0
 10
-168.848
 20
255.703
 11
-164.297
 21
251.152
  0
LINE
  8
0
 10
-164.297
 20
251.152
 11
-160.245
 21
246.149
  0
LINE
  8
0
 10
-160.245
 20
246.149
 11
-156.739
 21
240.75
  0
LINE
  8
0
 10
-156.739
 20
240.75
 11
-153.817
 21
235.014
  0
LINE
  8
0
 10
-153.817
 20
235.014
 11
-151.51
 21
229.005
  0
LINE
  8
0
 10
-151.51
 20
229.005
 11
-149.844
 21
222.787
  0
LINE
  8
0
 10
-149.844
 20
222.787
 11
-148.837
 21
216.428
  0
LINE
  8
0
 10
-148.837
 20
216.428
 11
-148.5
 21
210
  0
LINE
  8
0
 10
-148.5
 20
210
 11
-148.837
 21
203.571
  0
ENDSEC
  0
SECTION
  2
OBJECTS
  0
DICTIONARY
  0
ENDSEC
  0
EOF
