  0
SECTION
  2
BLOCKS
  0
ENDSEC
  0
SECTION
  2
ENTITIES
  0
LINE
  8
0
 10
-820
 20
400
 11
-820
 21
0
  0
LINE
  8
0
 10
-820
 20
0
 11
0
 21
0
  0
LINE
  8
0
 10
0
 20
0
 11
0
 21
400
  0
LINE
  8
0
 10
0
 20
400
 11
-820
 21
400
  0
LINE
  8
0
 10
-141.848
 20
193.362
 11
-144.608
 21
180.377
  0
LINE
  8
0
 10
-144.608
 20
180.377
 11
-150.007
 21
168.25
  0
LINE
  8
0
 10
-150.007
 20
168.25
 11
-157.81
 21
157.51
  0
LINE
  8
0
 10
-157.81
 20
157.51
 11
-167.676
 21
148.627
  0
LINE
  8
0
 10
-167.676
 20
148.627
 11
-179.172
 21
141.99
  0
LINE
  8
0
 10
-179.172
 20
141.99
 11
-191.798
 21
137.888
  0
LINE
  8
0
 10
-191.798
 20
137.888
 11
-205
 21
136.5
  0
LINE
  8
0
 10
-205
 20
136.5
 11
-218.202
 21
137.888
  0
LINE
  8
0
 10
-218.202
 20
137.888
 11
-230.828
 21
141.99
  0
LINE
  8
0
 10
-230.828
 20
141.99
 11
-242.324
 21
148.627
  0
LINE
  8
0
 10
-242.324
 20
148.627
 11
-252.19
 21
157.51
  0
LINE
  8
0
 10
-252.19
 20
157.51
 11
-259.993
 21
168.25
  0
LINE
  8
0
 10
-259.993
 20
168.25
 11
-265.392
 21
180.377
  0
LINE
  8
0
 10
-265.392
 20
180.377
 11
-268.152
 21
193.362
  0
LINE
  8
0
 10
-268.152
 20
193.362
 11
-268.152
 21
206.638
  0
LINE
  8
0
 10
-268.152
 20
206.638
 11
-265.392
 21
219.623
  0
LINE
  8
0
 10
-265.392
 20
219.623
 11
-259.993
 21
231.75
  0
LINE
  8
0
 10
-259.993
 20
231.75
 11
-252.19
 21
242.49
  0
LINE
  8
0
 10
-252.19
 20
242.49
 11
-242.324
 21
251.373
  0
LINE
  8
0
 10
-242.324
 20
251.373
 11
-230.828
 21
258.01
  0
LINE
  8
0
 10
-230.828
 20
258.01
 11
-218.202
 21
262.112
  0
LINE
  8
0
 10
-218.202
 20
262.112
 11
-205
 21
263.5
  0
LINE
  8
0
 10
-205
 20
263.5
 11
-191.798
 21
262.112
  0
LINE
  8
0
 10
-191.798
 20
262.112
 11
-179.172
 21
258.01
  0
LINE
  8
0
 10
-179.172
 20
258.01
 11
-167.676
 21
251.373
  0
LINE
  8
0
 10
-167.676
 20
251.373
 11
-157.81
 21
242.49
  0
LINE
  8
0
 10
-157.81
 20
242.49
 11
-150.007
 21
231.75
  0
LINE
  8
0
 10
-150.007
 20
231.75
 11
-144.608
 21
219.623
  0
LINE
  8
0
 10
-144.608
 20
219.623
 11
-141.848
 21
206.638
  0
LINE
  8
0
 10
-141.848
 20
206.638
 11
-141.848
 21
193.362
  0
ENDSEC
  0
SECTION
  2
OBJECTS
  0
DICTIONARY
  0
ENDSEC
  0
EOF
