  0
SECTION
  2
BLOCKS
  0
ENDSEC
  0
SECTION
  2
ENTITIES
  0
LINE
  8
0
 10
400
 20
820
 11
0
 21
820
  0
LINE
  8
0
 10
0
 20
820
 11
0
 21
0
  0
LINE
  8
0
 10
0
 20
0
 11
400
 21
0
  0
LINE
  8
0
 10
400
 20
0
 11
400
 21
820
  0
LINE
  8
0
 10
193.467
 20
142.842
 11
180.686
 21
145.559
  0
LINE
  8
0
 10
180.686
 20
145.559
 11
168.75
 21
150.873
  0
LINE
  8
0
 10
168.75
 20
150.873
 11
158.179
 21
158.553
  0
LINE
  8
0
 10
158.179
 20
158.553
 11
149.436
 21
168.263
  0
LINE
  8
0
 10
149.436
 20
168.263
 11
142.903
 21
179.579
  0
LINE
  8
0
 10
142.903
 20
179.579
 11
138.866
 21
192.006
  0
LINE
  8
0
 10
138.866
 20
192.006
 11
137.5
 21
205
  0
LINE
  8
0
 10
137.5
 20
205
 11
138.866
 21
217.994
  0
LINE
  8
0
 10
138.866
 20
217.994
 11
142.903
 21
230.421
  0
LINE
  8
0
 10
142.903
 20
230.421
 11
149.436
 21
241.737
  0
LINE
  8
0
 10
149.436
 20
241.737
 11
158.179
 21
251.447
  0
LINE
  8
0
 10
158.179
 20
251.447
 11
168.75
 21
259.127
  0
LINE
  8
0
 10
168.75
 20
259.127
 11
180.686
 21
264.441
  0
LINE
  8
0
 10
180.686
 20
264.441
 11
193.467
 21
267.158
  0
LINE
  8
0
 10
193.467
 20
267.158
 11
206.533
 21
267.158
  0
LINE
  8
0
 10
206.533
 20
267.158
 11
219.314
 21
264.441
  0
LINE
  8
0
 10
219.314
 20
264.441
 11
231.25
 21
259.127
  0
LINE
  8
0
 10
231.25
 20
259.127
 11
241.821
 21
251.447
  0
LINE
  8
0
 10
241.821
 20
251.447
 11
250.564
 21
241.737
  0
LINE
  8
0
 10
250.564
 20
241.737
 11
257.097
 21
230.421
  0
LINE
  8
0
 10
257.097
 20
230.421
 11
261.134
 21
217.994
  0
LINE
  8
0
 10
261.134
 20
217.994
 11
262.5
 21
205
  0
LINE
  8
0
 10
262.5
 20
205
 11
261.134
 21
192.006
  0
LINE
  8
0
 10
261.134
 20
192.006
 11
257.097
 21
179.579
  0
LINE
  8
0
 10
257.097
 20
179.579
 11
250.564
 21
168.263
  0
LINE
  8
0
 10
250.564
 20
168.263
 11
241.821
 21
158.553
  0
LINE
  8
0
 10
241.821
 20
158.553
 11
231.25
 21
150.873
  0
LINE
  8
0
 10
231.25
 20
150.873
 11
219.314
 21
145.559
  0
LINE
  8
0
 10
219.314
 20
145.559
 11
206.533
 21
142.842
  0
LINE
  8
0
 10
206.533
 20
142.842
 11
193.467
 21
142.842
  0
ENDSEC
  0
SECTION
  2
OBJECTS
  0
DICTIONARY
  0
ENDSEC
  0
EOF
