  0
SECTION
  2
BLOCKS
  0
ENDSEC
  0
SECTION
  2
ENTITIES
  0
LINE
  8
0
 10
-845
 20
415
 11
-845
 21
0
  0
LINE
  8
0
 10
-845
 20
0
 11
0
 21
0
  0
LINE
  8
0
 10
0
 20
0
 11
0
 21
415
  0
LINE
  8
0
 10
0
 20
415
 11
-845
 21
415
  0
LINE
  8
0
 10
-150.087
 20
201.071
 11
-151.094
 21
194.713
  0
LINE
  8
0
 10
-151.094
 20
194.713
 11
-152.76
 21
188.495
  0
LINE
  8
0
 10
-152.76
 20
188.495
 11
-155.067
 21
182.486
  0
LINE
  8
0
 10
-155.067
 20
182.486
 11
-157.989
 21
176.75
  0
LINE
  8
0
 10
-157.989
 20
176.75
 11
-161.495
 21
171.351
  0
LINE
  8
0
 10
-161.495
 20
171.351
 11
-165.547
 21
166.348
  0
LINE
  8
0
 10
-165.547
 20
166.348
 11
-170.098
 21
161.797
  0
LINE
  8
0
 10
-170.098
 20
161.797
 11
-175.101
 21
157.745
  0
LINE
  8
0
 10
-175.101
 20
157.745
 11
-180.5
 21
154.239
  0
LINE
  8
0
 10
-180.5
 20
154.239
 11
-186.236
 21
151.317
  0
LINE
  8
0
 10
-186.236
 20
151.317
 11
-192.245
 21
149.01
  0
LINE
  8
0
 10
-192.245
 20
149.01
 11
-198.463
 21
147.344
  0
LINE
  8
0
 10
-198.463
 20
147.344
 11
-204.821
 21
146.337
  0
LINE
  8
0
 10
-204.821
 20
146.337
 11
-211.25
 21
146
  0
LINE
  8
0
 10
-211.25
 20
146
 11
-217.678
 21
146.337
  0
LINE
  8
0
 10
-217.678
 20
146.337
 11
-224.037
 21
147.344
  0
LINE
  8
0
 10
-224.037
 20
147.344
 11
-230.255
 21
149.01
  0
LINE
  8
0
 10
-230.255
 20
149.01
 11
-236.264
 21
151.317
  0
LINE
  8
0
 10
-236.264
 20
151.317
 11
-242
 21
154.239
  0
LINE
  8
0
 10
-242
 20
154.239
 11
-247.399
 21
157.745
  0
LINE
  8
0
 10
-247.399
 20
157.745
 11
-252.402
 21
161.797
  0
LINE
  8
0
 10
-252.402
 20
161.797
 11
-256.953
 21
166.348
  0
LINE
  8
0
 10
-256.953
 20
166.348
 11
-261.005
 21
171.351
  0
LINE
  8
0
 10
-261.005
 20
171.351
 11
-264.511
 21
176.75
  0
LINE
  8
0
 10
-264.511
 20
176.75
 11
-267.433
 21
182.486
  0
LINE
  8
0
 10
-267.433
 20
182.486
 11
-269.74
 21
188.495
  0
LINE
  8
0
 10
-269.74
 20
188.495
 11
-271.406
 21
194.713
  0
LINE
  8
0
 10
-271.406
 20
194.713
 11
-272.413
 21
201.071
  0
LINE
  8
0
 10
-272.413
 20
201.071
 11
-272.75
 21
207.5
  0
LINE
  8
0
 10
-272.75
 20
207.5
 11
-272.413
 21
213.928
  0
LINE
  8
0
 10
-272.413
 20
213.928
 11
-271.406
 21
220.287
  0
LINE
  8
0
 10
-271.406
 20
220.287
 11
-269.74
 21
226.505
  0
LINE
  8
0
 10
-269.74
 20
226.505
 11
-267.433
 21
232.514
  0
LINE
  8
0
 10
-267.433
 20
232.514
 11
-264.511
 21
238.25
  0
LINE
  8
0
 10
-264.511
 20
238.25
 11
-261.005
 21
243.649
  0
LINE
  8
0
 10
-261.005
 20
243.649
 11
-256.953
 21
248.652
  0
LINE
  8
0
 10
-256.953
 20
248.652
 11
-252.402
 21
253.203
  0
LINE
  8
0
 10
-252.402
 20
253.203
 11
-247.399
 21
257.255
  0
LINE
  8
0
 10
-247.399
 20
257.255
 11
-242
 21
260.761
  0
LINE
  8
0
 10
-242
 20
260.761
 11
-236.264
 21
263.683
  0
LINE
  8
0
 10
-236.264
 20
263.683
 11
-230.255
 21
265.99
  0
LINE
  8
0
 10
-230.255
 20
265.99
 11
-224.037
 21
267.656
  0
LINE
  8
0
 10
-224.037
 20
267.656
 11
-217.678
 21
268.663
  0
LINE
  8
0
 10
-217.678
 20
268.663
 11
-211.25
 21
269
  0
LINE
  8
0
 10
-211.25
 20
269
 11
-204.821
 21
268.663
  0
LINE
  8
0
 10
-204.821
 20
268.663
 11
-198.463
 21
267.656
  0
LINE
  8
0
 10
-198.463
 20
267.656
 11
-192.245
 21
265.99
  0
LINE
  8
0
 10
-192.245
 20
265.99
 11
-186.236
 21
263.683
  0
LINE
  8
0
 10
-186.236
 20
263.683
 11
-180.5
 21
260.761
  0
LINE
  8
0
 10
-180.5
 20
260.761
 11
-175.101
 21
257.255
  0
LINE
  8
0
 10
-175.101
 20
257.255
 11
-170.098
 21
253.203
  0
LINE
  8
0
 10
-170.098
 20
253.203
 11
-165.547
 21
248.652
  0
LINE
  8
0
 10
-165.547
 20
248.652
 11
-161.495
 21
243.649
  0
LINE
  8
0
 10
-161.495
 20
243.649
 11
-157.989
 21
238.25
  0
LINE
  8
0
 10
-157.989
 20
238.25
 11
-155.067
 21
232.514
  0
LINE
  8
0
 10
-155.067
 20
232.514
 11
-152.76
 21
226.505
  0
LINE
  8
0
 10
-152.76
 20
226.505
 11
-151.094
 21
220.287
  0
LINE
  8
0
 10
-151.094
 20
220.287
 11
-150.087
 21
213.928
  0
LINE
  8
0
 10
-150.087
 20
213.928
 11
-149.75
 21
207.5
  0
LINE
  8
0
 10
-149.75
 20
207.5
 11
-150.087
 21
201.071
  0
ENDSEC
  0
SECTION
  2
OBJECTS
  0
DICTIONARY
  0
ENDSEC
  0
EOF
