<?xml version="1.0" standalone="no"?>
<!DOCTYPE svg PUBLIC "-//W3C//DTD SVG 1.1//EN" "http://www.w3.org/Graphics/SVG/1.1/DTD/svg11.dtd">
<svg width="840mm" height="420mm" viewBox="-840 -420 840 420" xmlns="http://www.w3.org/2000/svg" version="1.1">
<title>OpenSCAD Model</title>
<path d="
M -840,-420 L -840,-0 L 0,-0 L 0,-420 z
M -160.274,-204.774 L -161.093,-199.604 L -162.447,-194.549 L -164.323,-189.663 L -166.699,-185 L -169.549,-180.611
 L -172.843,-176.543 L -176.543,-172.843 L -180.611,-169.549 L -185,-166.699 L -189.663,-164.323 L -194.549,-162.447
 L -199.604,-161.093 L -204.774,-160.274 L -210,-160 L -215.226,-160.274 L -220.396,-161.093 L -225.451,-162.447
 L -230.337,-164.323 L -235,-166.699 L -239.389,-169.549 L -243.457,-172.843 L -247.157,-176.543 L -250.451,-180.611
 L -253.301,-185 L -255.677,-189.663 L -257.553,-194.549 L -258.907,-199.604 L -259.726,-204.774 L -260,-210
 L -259.726,-215.226 L -258.907,-220.396 L -257.553,-225.451 L -255.677,-230.337 L -253.301,-235 L -250.451,-239.389
 L -247.157,-243.457 L -243.457,-247.157 L -239.389,-250.451 L -235,-253.301 L -230.337,-255.677 L -225.451,-257.553
 L -220.396,-258.907 L -215.226,-259.726 L -210,-260 L -204.774,-259.726 L -199.604,-258.907 L -194.549,-257.553
 L -189.663,-255.677 L -185,-253.301 L -180.611,-250.451 L -176.543,-247.157 L -172.843,-243.457 L -169.549,-239.389
 L -166.699,-235 L -164.323,-230.337 L -162.447,-225.451 L -161.093,-220.396 L -160.274,-215.226 L -160,-210
 z
" stroke="black" fill="lightgray" stroke-width="0.5"/>
</svg>
