<?xml version="1.0" standalone="no"?>
<!DOCTYPE svg PUBLIC "-//W3C//DTD SVG 1.1//EN" "http://www.w3.org/Graphics/SVG/1.1/DTD/svg11.dtd">
<svg width="840mm" height="420mm" viewBox="-840 -420 840 420" xmlns="http://www.w3.org/2000/svg" version="1.1">
<title>OpenSCAD Model</title>
<path d="
M -840,-420 L -840,-0 L 0,-0 L 0,-420 z
M -147.842,-203.467 L -148.866,-197.006 L -150.559,-190.686 L -152.903,-184.579 L -155.873,-178.75 L -159.436,-173.263
 L -163.553,-168.179 L -168.179,-163.553 L -173.263,-159.436 L -178.75,-155.873 L -184.579,-152.903 L -190.686,-150.559
 L -197.006,-148.866 L -203.467,-147.842 L -210,-147.5 L -216.533,-147.842 L -222.994,-148.866 L -229.314,-150.559
 L -235.421,-152.903 L -241.25,-155.873 L -246.737,-159.436 L -251.821,-163.553 L -256.447,-168.179 L -260.564,-173.263
 L -264.127,-178.75 L -267.097,-184.579 L -269.441,-190.686 L -271.134,-197.006 L -272.158,-203.467 L -272.5,-210
 L -272.158,-216.533 L -271.134,-222.994 L -269.441,-229.314 L -267.097,-235.421 L -264.127,-241.25 L -260.564,-246.737
 L -256.447,-251.821 L -251.821,-256.447 L -246.737,-260.564 L -241.25,-264.127 L -235.421,-267.097 L -229.314,-269.441
 L -222.994,-271.134 L -216.533,-272.158 L -210,-272.5 L -203.467,-272.158 L -197.006,-271.134 L -190.686,-269.441
 L -184.579,-267.097 L -178.75,-264.127 L -173.263,-260.564 L -168.179,-256.447 L -163.553,-251.821 L -159.436,-246.737
 L -155.873,-241.25 L -152.903,-235.421 L -150.559,-229.314 L -148.866,-222.994 L -147.842,-216.533 L -147.5,-210
 z
" stroke="black" fill="lightgray" stroke-width="0.5"/>
</svg>
