<?xml version="1.0" standalone="no"?>
<!DOCTYPE svg PUBLIC "-//W3C//DTD SVG 1.1//EN" "http://www.w3.org/Graphics/SVG/1.1/DTD/svg11.dtd">
<svg width="400mm" height="820mm" viewBox="0 -820 400 820" xmlns="http://www.w3.org/2000/svg" version="1.1">
<title>OpenSCAD Model</title>
<path d="
M 400,-820 L 0,-820 L 0,-0 L 400,-0 z
M 193.362,-141.848 L 180.377,-144.608 L 168.25,-150.007 L 157.51,-157.81 L 148.627,-167.676 L 141.99,-179.172
 L 137.888,-191.798 L 136.5,-205 L 137.888,-218.202 L 141.99,-230.828 L 148.627,-242.324 L 157.51,-252.19
 L 168.25,-259.993 L 180.377,-265.392 L 193.362,-268.152 L 206.638,-268.152 L 219.623,-265.392 L 231.75,-259.993
 L 242.49,-252.19 L 251.373,-242.324 L 258.01,-230.828 L 262.112,-218.202 L 263.5,-205 L 262.112,-191.798
 L 258.01,-179.172 L 251.373,-167.676 L 242.49,-157.81 L 231.75,-150.007 L 219.623,-144.608 L 206.638,-141.848
 z
" stroke="black" fill="lightgray" stroke-width="0.5"/>
</svg>
