  0
SECTION
  2
BLOCKS
  0
ENDSEC
  0
SECTION
  2
ENTITIES
  0
LINE
  8
0
 10
-840
 20
420
 11
-840
 21
0
  0
LINE
  8
0
 10
-840
 20
0
 11
0
 21
0
  0
LINE
  8
0
 10
0
 20
0
 11
0
 21
420
  0
LINE
  8
0
 10
0
 20
420
 11
-840
 21
420
  0
LINE
  8
0
 10
-160.274
 20
204.774
 11
-161.093
 21
199.604
  0
LINE
  8
0
 10
-161.093
 20
199.604
 11
-162.447
 21
194.549
  0
LINE
  8
0
 10
-162.447
 20
194.549
 11
-164.323
 21
189.663
  0
LINE
  8
0
 10
-164.323
 20
189.663
 11
-166.699
 21
185
  0
LINE
  8
0
 10
-166.699
 20
185
 11
-169.549
 21
180.611
  0
LINE
  8
0
 10
-169.549
 20
180.611
 11
-172.843
 21
176.543
  0
LINE
  8
0
 10
-172.843
 20
176.543
 11
-176.543
 21
172.843
  0
LINE
  8
0
 10
-176.543
 20
172.843
 11
-180.611
 21
169.549
  0
LINE
  8
0
 10
-180.611
 20
169.549
 11
-185
 21
166.699
  0
LINE
  8
0
 10
-185
 20
166.699
 11
-189.663
 21
164.323
  0
LINE
  8
0
 10
-189.663
 20
164.323
 11
-194.549
 21
162.447
  0
LINE
  8
0
 10
-194.549
 20
162.447
 11
-199.604
 21
161.093
  0
LINE
  8
0
 10
-199.604
 20
161.093
 11
-204.774
 21
160.274
  0
LINE
  8
0
 10
-204.774
 20
160.274
 11
-210
 21
160
  0
LINE
  8
0
 10
-210
 20
160
 11
-215.226
 21
160.274
  0
LINE
  8
0
 10
-215.226
 20
160.274
 11
-220.396
 21
161.093
  0
LINE
  8
0
 10
-220.396
 20
161.093
 11
-225.451
 21
162.447
  0
LINE
  8
0
 10
-225.451
 20
162.447
 11
-230.337
 21
164.323
  0
LINE
  8
0
 10
-230.337
 20
164.323
 11
-235
 21
166.699
  0
LINE
  8
0
 10
-235
 20
166.699
 11
-239.389
 21
169.549
  0
LINE
  8
0
 10
-239.389
 20
169.549
 11
-243.457
 21
172.843
  0
LINE
  8
0
 10
-243.457
 20
172.843
 11
-247.157
 21
176.543
  0
LINE
  8
0
 10
-247.157
 20
176.543
 11
-250.451
 21
180.611
  0
LINE
  8
0
 10
-250.451
 20
180.611
 11
-253.301
 21
185
  0
LINE
  8
0
 10
-253.301
 20
185
 11
-255.677
 21
189.663
  0
LINE
  8
0
 10
-255.677
 20
189.663
 11
-257.553
 21
194.549
  0
LINE
  8
0
 10
-257.553
 20
194.549
 11
-258.907
 21
199.604
  0
LINE
  8
0
 10
-258.907
 20
199.604
 11
-259.726
 21
204.774
  0
LINE
  8
0
 10
-259.726
 20
204.774
 11
-260
 21
210
  0
LINE
  8
0
 10
-260
 20
210
 11
-259.726
 21
215.226
  0
LINE
  8
0
 10
-259.726
 20
215.226
 11
-258.907
 21
220.396
  0
LINE
  8
0
 10
-258.907
 20
220.396
 11
-257.553
 21
225.451
  0
LINE
  8
0
 10
-257.553
 20
225.451
 11
-255.677
 21
230.337
  0
LINE
  8
0
 10
-255.677
 20
230.337
 11
-253.301
 21
235
  0
LINE
  8
0
 10
-253.301
 20
235
 11
-250.451
 21
239.389
  0
LINE
  8
0
 10
-250.451
 20
239.389
 11
-247.157
 21
243.457
  0
LINE
  8
0
 10
-247.157
 20
243.457
 11
-243.457
 21
247.157
  0
LINE
  8
0
 10
-243.457
 20
247.157
 11
-239.389
 21
250.451
  0
LINE
  8
0
 10
-239.389
 20
250.451
 11
-235
 21
253.301
  0
LINE
  8
0
 10
-235
 20
253.301
 11
-230.337
 21
255.677
  0
LINE
  8
0
 10
-230.337
 20
255.677
 11
-225.451
 21
257.553
  0
LINE
  8
0
 10
-225.451
 20
257.553
 11
-220.396
 21
258.907
  0
LINE
  8
0
 10
-220.396
 20
258.907
 11
-215.226
 21
259.726
  0
LINE
  8
0
 10
-215.226
 20
259.726
 11
-210
 21
260
  0
LINE
  8
0
 10
-210
 20
260
 11
-204.774
 21
259.726
  0
LINE
  8
0
 10
-204.774
 20
259.726
 11
-199.604
 21
258.907
  0
LINE
  8
0
 10
-199.604
 20
258.907
 11
-194.549
 21
257.553
  0
LINE
  8
0
 10
-194.549
 20
257.553
 11
-189.663
 21
255.677
  0
LINE
  8
0
 10
-189.663
 20
255.677
 11
-185
 21
253.301
  0
LINE
  8
0
 10
-185
 20
253.301
 11
-180.611
 21
250.451
  0
LINE
  8
0
 10
-180.611
 20
250.451
 11
-176.543
 21
247.157
  0
LINE
  8
0
 10
-176.543
 20
247.157
 11
-172.843
 21
243.457
  0
LINE
  8
0
 10
-172.843
 20
243.457
 11
-169.549
 21
239.389
  0
LINE
  8
0
 10
-169.549
 20
239.389
 11
-166.699
 21
235
  0
LINE
  8
0
 10
-166.699
 20
235
 11
-164.323
 21
230.337
  0
LINE
  8
0
 10
-164.323
 20
230.337
 11
-162.447
 21
225.451
  0
LINE
  8
0
 10
-162.447
 20
225.451
 11
-161.093
 21
220.396
  0
LINE
  8
0
 10
-161.093
 20
220.396
 11
-160.274
 21
215.226
  0
LINE
  8
0
 10
-160.274
 20
215.226
 11
-160
 21
210
  0
LINE
  8
0
 10
-160
 20
210
 11
-160.274
 21
204.774
  0
ENDSEC
  0
SECTION
  2
OBJECTS
  0
DICTIONARY
  0
ENDSEC
  0
EOF
